<?xml version="1.0" encoding="utf-8"?>
<!-- Generator: Adobe Illustrator 24.1.1, SVG Export Plug-In . SVG Version: 6.00 Build 0)  -->
<svg version="1.1" id="Calque_1" xmlns="http://www.w3.org/2000/svg" xmlns:xlink="http://www.w3.org/1999/xlink" x="0px" y="0px"
	 viewBox="0 0 1546.6 512" style="enable-background:new 0 0 1546.6 512;" xml:space="preserve">
<style type="text/css">
	.st0{fill:#FFFFFF;}
	.st1{fill:#DD352E;}
	.st2{fill:#ED8A19;}
	.st3{fill:#28384C;}
	.st4{fill:#25AE88;}
	.st5{fill:#208E6C;}
	.st6{font-family:'ARCENA';}
	.st7{font-size:350px;}
</style>
<path class="st0" d="M462,512H50c-27.5,0-50-22.5-50-50V50C0,22.5,22.5,0,50,0H462c27.5,0,50,22.5,50,50V462
	C512,489.5,489.5,512,462,512z"/>
<path class="st1" d="M79.4,256c0-19.5,15.8-35.3,35.3-35.3s35.3,15.8,35.3,35.3s-15.8,35.3-35.3,35.3S79.4,275.5,79.4,256z"/>
<path class="st2" d="M79.4,406.1c0-19.5,15.8-35.3,35.3-35.3s35.3,15.8,35.3,35.3s-15.8,35.3-35.3,35.3S79.4,425.6,79.4,406.1z"/>
<g>
	<path class="st3" d="M229.5,88.3h203v35.3h-203V88.3z"/>
	<path class="st3" d="M229.5,238.3h203v35.3h-203V238.3z"/>
	<path class="st3" d="M229.5,388.4h203v35.3h-203V388.4z"/>
</g>
<path class="st4" d="M114.8,123.6c-2.3,0-4.5-0.9-6.2-2.6L82,94.5c-3.5-3.4-3.5-9,0-12.5s9-3.5,12.5,0l26.5,26.5
	c3.5,3.5,3.5,9,0,12.5C119.3,122.7,117,123.6,114.8,123.6z"/>
<path class="st4" d="M114.8,123.6c-1.8,0-3.6-0.5-5.1-1.6c-4-2.8-4.9-8.4-2.1-12.3l44.1-61.8c2.8-4,8.4-4.9,12.3-2.1
	c4,2.8,4.9,8.3,2.1,12.3l-44.1,61.8C120.2,122.3,117.5,123.6,114.8,123.6z"/>
<path class="st5" d="M114.8,150.1c-20,0-37.6-13.6-42.6-33.1c-1.2-4.7,1.6-9.5,6.3-10.8c4.8-1.2,9.5,1.6,10.8,6.3
	c3,11.7,13.5,19.9,25.5,19.9s22.5-8.2,25.5-19.9c1.2-4.7,6.1-7.5,10.8-6.3c4.7,1.2,7.6,6,6.3,10.8
	C152.3,136.5,134.8,150.1,114.8,150.1z"/>
<path class="st5" d="M97.1,75.4c-3,0-6-1.6-7.6-4.4c-2.5-4.2-1-9.6,3.2-12.1c9.9-5.8,22.1-7.4,33.2-4.6c4.7,1.2,7.5,6,6.3,10.8
	c-1.2,4.7-6,7.6-10.8,6.3c-6.6-1.7-13.9-0.7-19.8,2.7C100.2,75,98.6,75.4,97.1,75.4z"/>
<text transform="matrix(1 0 0 1 550.8082 370.7576)" class="st6 st7">ToDoU2</text>
</svg>
