<svg xmlns="http://www.w3.org/2000/svg" viewBox="0 0 42 57"><defs><style>.cls-1{stroke:#000;stroke-miterlimit:10;}</style></defs><g id="Calque_2" data-name="Calque 2"><g id="Calque_1-2" data-name="Calque 1"><path class="cls-1" d="M37.67.5H10.33A3.84,3.84,0,0,0,6.5,4.33V46.67a3.84,3.84,0,0,0,3.83,3.83H37.67a3.84,3.84,0,0,0,3.83-3.83V4.33A3.84,3.84,0,0,0,37.67.5ZM39,47a1,1,0,0,1-1,1H10a1,1,0,0,1-1-1V4a1,1,0,0,1,1-1H38a1,1,0,0,1,1,1Z"/><path class="cls-1" d="M3,53V14.5H.5V52.67A3.84,3.84,0,0,0,4.33,56.5H30V54H4A1,1,0,0,1,3,53Z"/></g></g></svg>