<svg xmlns="http://www.w3.org/2000/svg" viewBox="0 0 213 213"><defs><style>.cls-1{fill:#c40000;}.cls-2{fill:#00c400;}.cls-3{fill:#0000c4;}.cls-4{fill:#c400c4;}.cls-5{fill:#00a3c4;}.cls-6{fill:#ff8000;}</style></defs><g id="Calque_2" data-name="Calque 2"><g id="Calque_1-2" data-name="Calque 1"><path class="cls-1" d="M147.74,8.28,107,107l86.07-62.54A106.91,106.91,0,0,0,147.74,8.28Z"/><path class="cls-2" d="M107,107l86.07,61.54a106.52,106.52,0,0,0-.24-124.41Z"/><path class="cls-3" d="M107,0V107L147.86,8.33A106.05,106.05,0,0,0,107,0Z"/><path class="cls-4" d="M13.24,55A106,106,0,0,0,0,106.5c0,.17,0,.33,0,.5H107Z"/><path class="cls-5" d="M107,107V0h-.5A106.49,106.49,0,0,0,13.2,55.11Z"/><path class="cls-6" d="M0,107a106.49,106.49,0,0,0,193.06,61.53L107,107Z"/></g></g></svg>