<svg xmlns="http://www.w3.org/2000/svg" viewBox="0 0 28.61 12.86"><g id="Calque_2" data-name="Calque 2"><g id="Calque_1-2" data-name="Calque 1"><path d="M12.52,0a6.61,6.61,0,0,1,1.79.25,6.44,6.44,0,0,1,4.51,7.44H15.64A3.39,3.39,0,0,0,14.31,3.6a3.32,3.32,0,0,0-1.79-.52H6.43a3.35,3.35,0,0,0,0,6.7H8.31a8.53,8.53,0,0,0,2.26,3.08H6.43A6.43,6.43,0,0,1,6.43,0Zm9.67,0H18a8.67,8.67,0,0,1,2.27,3.08h1.87a3.35,3.35,0,1,1,0,6.7H16.1a3.36,3.36,0,0,1-3.36-3.35A3.75,3.75,0,0,1,13,5.17H9.8a5.79,5.79,0,0,0-.13,1.26,6.37,6.37,0,0,0,.94,3.35,6.46,6.46,0,0,0,3.7,2.83,6.61,6.61,0,0,0,1.79.25h6.08A6.43,6.43,0,0,0,22.19,0Z"/></g></g></svg>