<svg xmlns="http://www.w3.org/2000/svg" viewBox="0 0 38 47.64"><g id="Calque_2" data-name="Calque 2"><g id="Calque_1-2" data-name="Calque 1"><path d="M33.5,17.64H33V13.5A13.54,13.54,0,0,0,19.5,0h-1A13.54,13.54,0,0,0,5,13.5v4.14H4.5A4.5,4.5,0,0,0,0,22.14v21a4.49,4.49,0,0,0,4.5,4.5h29a4.49,4.49,0,0,0,4.5-4.5v-21A4.5,4.5,0,0,0,33.5,17.64ZM22,38.64H16a1.25,1.25,0,0,1-1.08-1.87l2.62-4.54a3,3,0,1,1,3,0l2.62,4.54A1.25,1.25,0,0,1,22,38.64Zm-12.82-21V14.76c0-5.84,4.25-10.62,9.44-10.62h.7c5.19,0,9.44,4.78,9.44,10.62v2.88Z"/></g></g></svg>