<svg xmlns="http://www.w3.org/2000/svg" viewBox="0 0 111.75 104.48"><defs><style>.cls-1{fill:#f08604;}.cls-2{fill:#42a9e0;}</style></defs><g id="Calque_2" data-name="Calque 2"><g id="Calque_1-2" data-name="Calque 1"><polygon class="cls-1" points="41.55 70.2 5.04 44.14 41.58 104.48 111.75 0 41.55 70.2"/><path class="cls-2" d="M13.11,43.15a34.32,34.32,0,0,1,55.07-7.37l6.36-6.37A43.3,43.3,0,0,0,5.74,37.9Z"/><path class="cls-2" d="M25.71,88.89A34.29,34.29,0,0,1,9.07,61.41L1.35,48.67a43.36,43.36,0,0,0,32.06,52.94Z"/><path class="cls-2" d="M77.61,60.69a34.3,34.3,0,0,1-20.16,30l-7.77,11.58A43.34,43.34,0,0,0,85.4,49.09Z"/></g></g></svg>