<svg xmlns="http://www.w3.org/2000/svg" viewBox="0 0 381.57 196.39"><defs><style>.cls-1{font-size:72px;font-family:SegoeUI-Semilight, Segoe UI;font-weight:300;letter-spacing:0.3em;}.cls-1,.cls-2,.cls-4{fill:#42a9e0;}.cls-2{font-size:99.5px;font-family:SegoeUI, Segoe UI;}.cls-3{fill:#f08604;}</style></defs><g id="Calque_2" data-name="Calque 2"><g id="Calque_1-2" data-name="Calque 1"><text class="cls-1" transform="translate(5.74 168.13)">SURVEY</text><text class="cls-2" transform="translate(94.16 96.96)">NLINE</text><polygon class="cls-3" points="41.55 70.2 5.04 44.14 41.58 104.48 111.75 0 41.55 70.2"/><path class="cls-4" d="M13.11,43.15a34.32,34.32,0,0,1,55.07-7.37l6.36-6.37A43.3,43.3,0,0,0,5.74,37.9Z"/><path class="cls-4" d="M25.71,88.89A34.29,34.29,0,0,1,9.07,61.41L1.35,48.67a43.36,43.36,0,0,0,32.06,52.94Z"/><path class="cls-4" d="M77.61,60.69a34.3,34.3,0,0,1-20.16,30l-7.77,11.58A43.34,43.34,0,0,0,85.4,49.09Z"/></g></g></svg>